<?xml version="1.0" standalone="no"?>
<!DOCTYPE svg PUBLIC "-//W3C//DTD SVG 20010904//EN"
 "http://www.w3.org/TR/2001/REC-SVG-20010904/DTD/svg10.dtd">
<svg version="1.0" xmlns="http://www.w3.org/2000/svg"
 width="400.000000pt" height="400.000000pt" viewBox="0 0 400.000000 400.000000"
 preserveAspectRatio="xMidYMid meet">

<g transform="translate(0.000000,400.000000) scale(0.100000,-0.100000)"
fill="#000000" stroke="none">
<path d="M1915 3308 c-2 -7 -13 -46 -24 -86 -11 -41 -23 -82 -26 -93 -5 -15
-1 -19 15 -19 13 0 24 8 27 20 4 16 14 20 44 20 24 0 41 -6 47 -16 5 -9 18
-14 29 -12 20 3 20 6 -17 98 -33 83 -41 95 -64 98 -15 2 -28 -2 -31 -10z m55
-100 c0 -12 -8 -18 -24 -18 -23 0 -24 2 -15 32 5 18 9 35 9 38 1 14 30 -36 30
-52z"/>
<path d="M2144 3310 c-38 -15 -64 -59 -64 -107 0 -36 6 -50 30 -74 26 -26 36
-30 77 -27 43 3 48 6 51 28 3 20 1 23 -9 13 -14 -14 -58 -17 -75 -5 -21 14
-36 54 -29 80 14 59 66 79 113 46 21 -14 22 -14 22 5 0 33 -74 59 -116 41z"/>
<path d="M1733 3288 c-6 -7 -13 -31 -16 -52 -9 -59 -20 -61 -55 -13 -26 37
-36 44 -57 40 -30 -6 -31 -12 -4 -118 17 -69 25 -85 40 -85 23 0 23 0 4 70 -8
30 -12 57 -9 59 3 3 18 -9 32 -27 37 -45 59 -42 67 8 4 22 10 40 15 40 4 0 14
-26 22 -57 12 -48 18 -57 34 -55 10 2 20 5 21 6 2 2 -8 44 -38 159 -10 38 -36
50 -56 25z"/>
<path d="M2326 3282 c-9 -14 -36 -130 -36 -154 0 -34 30 -59 79 -65 64 -9 83
17 117 160 5 23 3 27 -14 27 -17 0 -25 -13 -42 -69 -21 -72 -38 -95 -66 -89
-35 7 -39 32 -16 109 17 57 19 74 10 81 -16 10 -26 10 -32 0z"/>
<path d="M1463 3214 c-8 -4 -4 -21 12 -57 13 -28 22 -53 20 -56 -3 -2 -30 13
-60 34 -49 33 -59 37 -80 27 -28 -13 -29 -10 27 -129 28 -60 36 -70 50 -62 15
8 15 14 -8 64 -14 31 -24 60 -22 65 2 6 32 -10 66 -35 44 -32 69 -44 83 -40
10 4 19 10 19 14 0 15 -81 181 -88 180 -4 0 -12 -3 -19 -5z"/>
<path d="M2527 3128 c-20 -46 -37 -88 -37 -94 0 -6 38 -28 85 -49 68 -30 88
-35 99 -25 23 18 79 -17 72 -46 -6 -21 18 -53 30 -42 3 3 14 43 25 89 11 46
22 92 25 101 4 12 -3 21 -19 29 -22 10 -32 5 -99 -50 -67 -54 -110 -78 -93
-51 3 5 -12 17 -34 26 -23 9 -41 20 -41 24 0 5 14 39 30 76 17 37 28 74 26 81
-12 30 -34 8 -69 -69z m247 -115 c-10 -41 -22 -50 -41 -31 -15 16 -15 18 8 37
33 28 41 26 33 -6z"/>
<path d="M1225 3084 c-42 -25 -53 -51 -20 -46 25 3 99 -110 83 -126 -6 -6 -7
-15 -4 -21 5 -7 21 -1 46 16 41 27 54 55 22 46 -27 -7 -99 103 -83 128 17 28
-1 29 -44 3z"/>
<path d="M1950 2983 c-145 -14 -141 -13 -121 -35 11 -11 29 -51 42 -90 12 -38
30 -79 40 -91 18 -21 20 -21 33 -4 8 10 20 59 27 108 6 49 16 92 20 95 11 6
12 25 2 22 -5 0 -24 -3 -43 -5z"/>
<path d="M2046 2971 c9 -22 22 -86 29 -142 3 -26 12 -55 20 -65 15 -18 16 -18
34 4 11 12 29 53 41 90 12 37 28 77 36 89 13 21 12 22 -29 27 -121 15 -139 14
-131 -3z"/>
<path d="M2867 2918 l-65 -73 31 -28 c18 -15 47 -35 65 -43 62 -28 132 24 132
99 0 31 -7 46 -38 78 -22 21 -44 39 -49 39 -6 0 -40 -33 -76 -72z m111 10 c21
-21 14 -77 -13 -103 -29 -30 -55 -32 -86 -6 l-23 18 44 52 c45 53 58 59 78 39z"/>
<path d="M1755 2955 c-5 -2 -43 -13 -83 -25 l-74 -21 24 -23 c14 -12 39 -50
57 -83 71 -134 96 -123 96 43 0 62 -2 114 -5 113 -3 0 -9 -2 -15 -4z"/>
<path d="M2266 2852 c1 -135 0 -132 23 -132 21 0 46 30 81 99 12 24 32 54 45
67 l24 24 -72 21 c-40 11 -79 23 -87 25 -13 3 -15 -13 -14 -104z"/>
<path d="M995 2900 c-19 -21 -18 -23 29 -117 42 -86 49 -94 63 -81 12 13 13
20 3 37 -10 19 -8 26 15 49 23 23 29 24 47 13 17 -11 23 -10 36 2 13 14 7 19
-59 53 -41 20 -83 43 -95 50 -18 13 -23 12 -39 -6z m75 -55 c33 -17 36 -25 18
-43 -18 -18 -26 -15 -43 18 -24 46 -21 49 25 25z"/>
<path d="M1525 2874 c-16 -9 -49 -27 -72 -40 l-41 -24 83 -86 c46 -47 88 -83
94 -79 15 9 14 63 -4 121 -8 27 -15 66 -15 87 0 41 -3 43 -45 21z"/>
<path d="M2473 2876 c3 -8 -3 -51 -14 -96 -20 -84 -23 -122 -13 -133 12 -12
50 16 94 69 25 30 58 62 73 73 l29 18 -80 41 c-88 46 -97 49 -89 28z"/>
<path d="M1296 2724 l-69 -57 29 -12 c16 -7 52 -30 79 -52 117 -93 147 -75 84
50 -17 34 -36 77 -43 95 l-11 33 -69 -57z"/>
<path d="M2670 2766 c0 -8 -18 -52 -40 -97 -41 -84 -48 -113 -30 -124 13 -8
42 9 118 67 35 26 71 48 80 48 11 1 -2 18 -38 51 -67 62 -90 76 -90 55z"/>
<path d="M3042 2743 c-76 -30 -90 -38 -81 -50 8 -8 22 -12 38 -9 36 8 68 -35
53 -69 -8 -18 -8 -26 4 -36 8 -6 16 -10 18 -8 2 2 28 42 59 89 53 79 55 85 40
102 -21 23 -21 23 -131 -19z m78 -25 c-1 -23 -29 -51 -45 -45 -22 9 -18 32 8
45 30 14 37 14 37 0z"/>
<path d="M831 2717 c-6 -6 -11 -14 -11 -18 0 -8 160 -133 164 -128 66 87 76
103 66 113 -8 8 -18 1 -36 -22 -14 -17 -29 -32 -33 -32 -5 0 -37 22 -73 49
-49 37 -68 47 -77 38z"/>
<path d="M1140 2568 c-49 -62 -50 -63 -28 -72 13 -5 55 -25 95 -44 78 -37 120
-40 115 -7 -2 11 -28 52 -58 91 -30 39 -54 76 -54 82 0 25 -21 10 -70 -50z"/>
<path d="M2830 2610 c-7 -14 -35 -53 -62 -88 -82 -107 -56 -131 72 -67 38 19
81 35 95 35 l26 0 -19 28 c-11 15 -38 47 -59 72 l-40 44 -13 -24z"/>
<path d="M1941 2525 c-21 -20 -23 -28 -14 -47 6 -13 11 -48 11 -79 0 -56 0
-57 -30 -61 -32 -5 -49 6 -78 51 -12 18 -21 22 -37 17 -18 -6 -20 -11 -13 -36
7 -25 5 -32 -11 -41 -17 -8 -27 -5 -55 16 -28 21 -38 24 -49 15 -12 -10 -9
-19 22 -57 33 -40 40 -44 67 -38 17 3 77 12 134 20 89 13 115 13 205 0 56 -8
116 -17 133 -21 27 -5 34 -1 64 36 29 37 31 43 18 56 -13 14 -19 12 -46 -11
-42 -36 -70 -27 -74 23 -4 50 -29 53 -51 7 -16 -33 -19 -35 -66 -35 l-48 0 0
65 c0 36 3 68 8 71 17 10 9 43 -11 49 -11 3 -20 11 -20 16 0 17 -35 8 -59 -16z"/>
<path d="M1046 2435 c-16 -25 -66 -122 -66 -130 0 -3 14 -5 30 -5 17 0 66 -9
110 -21 129 -33 134 -6 20 101 -77 72 -81 75 -94 55z"/>
<path d="M2898 2378 c-111 -110 -104 -135 26 -99 42 12 90 21 106 21 17 0 30
2 30 5 0 11 -70 144 -77 147 -5 2 -43 -32 -85 -74z"/>
<path d="M952 2232 c-8 -20 -42 -131 -42 -136 0 -6 229 1 238 7 20 13 -1 39
-65 76 -32 19 -72 45 -89 57 l-32 23 -10 -27z"/>
<path d="M3061 2246 c-7 -9 -48 -36 -92 -61 -57 -33 -79 -51 -79 -65 0 -11 6
-21 13 -22 33 -5 227 -2 227 3 0 14 -42 144 -49 152 -4 4 -13 1 -20 -7z"/>
<path d="M1940 2115 c-23 -48 -44 -85 -47 -81 -3 3 -21 38 -39 78 l-33 73 -53
3 c-41 1 -49 0 -35 -8 15 -10 17 -32 17 -230 0 -198 -2 -220 -17 -229 -14 -8
-2 -10 47 -10 49 0 61 2 48 10 -10 5 -18 19 -18 29 0 23 59 160 69 160 4 0 26
-43 50 -95 24 -52 47 -95 50 -95 4 0 22 32 41 70 19 39 37 70 41 70 10 0 39
-76 39 -103 0 -13 -5 -28 -12 -35 -9 -9 10 -12 87 -12 94 0 97 1 82 18 -15 16
-17 47 -17 228 0 150 3 213 12 222 9 9 3 12 -31 12 l-42 0 -46 -100 c-26 -55
-49 -100 -53 -100 -3 0 -26 46 -49 103 -24 56 -45 104 -47 106 -2 2 -22 -35
-44 -84z m-110 -90 l39 -85 -37 -80 c-20 -43 -40 -79 -44 -80 -5 0 -8 74 -8
165 0 91 2 165 5 165 3 0 23 -38 45 -85z m350 -85 c0 -93 -4 -170 -8 -170 -4
0 -25 39 -45 88 l-37 87 40 83 c22 45 42 82 45 82 3 0 5 -76 5 -170z m-186 88
c14 -35 26 -66 26 -70 0 -5 -20 -8 -45 -8 -60 0 -70 23 -41 92 11 26 23 48 26
48 4 0 19 -28 34 -62z m45 -112 c10 -11 8 -23 -9 -55 -11 -23 -24 -41 -28 -41
-9 0 -52 84 -52 100 0 16 76 12 89 -4z"/>
<path d="M896 2007 c-15 -121 -14 -139 3 -131 9 4 57 13 106 21 142 22 151 53
27 94 -37 11 -81 29 -99 39 l-32 19 -5 -42z"/>
<path d="M3116 2035 c-10 -8 -49 -24 -85 -36 -151 -49 -148 -76 10 -102 46 -8
92 -18 102 -22 17 -7 18 -3 11 66 -9 101 -14 111 -38 94z"/>
<path d="M886 1791 c16 -161 14 -152 34 -133 11 10 51 28 89 40 81 26 122 54
105 72 -14 14 -76 29 -124 30 -19 1 -51 7 -71 14 l-37 13 4 -36z"/>
<path d="M3138 1819 c-9 -5 -54 -14 -99 -20 -158 -20 -158 -50 1 -104 40 -14
79 -30 86 -36 10 -8 14 -6 18 13 7 33 18 158 14 158 -2 0 -11 -5 -20 -11z"/>
<path d="M1685 1610 c-12 -13 -34 -20 -69 -23 l-51 -3 55 -2 c46 -2 57 1 68
19 9 14 20 19 33 16 10 -3 17 -1 13 4 -9 15 -30 10 -49 -11z"/>
<path d="M914 1590 c2 -8 14 -47 25 -87 l21 -72 24 24 c13 13 43 33 67 45 69
35 99 60 99 81 0 21 4 21 -137 23 -87 1 -102 -1 -99 -14z"/>
<path d="M2260 1595 c-6 -8 -34 -16 -63 -18 l-52 -3 55 -2 c46 -2 57 1 68 18
14 23 10 27 -8 5z"/>
<path d="M2909 1598 c-32 -12 -21 -34 34 -68 28 -18 71 -45 94 -61 39 -26 43
-27 52 -11 8 14 41 131 41 143 0 7 -201 4 -221 -3z"/>
<path d="M1778 1583 c18 -2 45 -2 60 0 15 2 0 4 -33 4 -33 0 -45 -2 -27 -4z"/>
<path d="M2358 1573 c18 -2 45 -2 60 0 15 2 0 4 -33 4 -33 0 -45 -2 -27 -4z"/>
<path d="M1532 1418 l2 -103 3 83 c4 77 16 104 30 65 4 -10 20 -42 36 -71 21
-37 32 -50 38 -41 4 8 4 16 0 19 -5 3 -25 38 -45 78 -53 104 -67 98 -64 -30z"/>
<path d="M1710 1500 c-7 -14 -7 -20 0 -20 6 0 10 -32 10 -80 0 -47 4 -80 10
-80 6 0 10 40 10 100 0 99 -8 121 -30 80z"/>
<path d="M1820 1420 c0 -73 3 -100 13 -100 9 0 12 27 12 100 0 73 -3 100 -12
100 -10 0 -13 -27 -13 -100z"/>
<path d="M1903 1509 c20 -12 23 -59 5 -78 -11 -11 -9 -11 10 -2 37 19 20 92
-21 91 -7 0 -4 -5 6 -11z"/>
<path d="M2364 1498 c36 -51 56 -99 56 -138 0 -22 5 -40 10 -40 6 0 10 19 10
43 0 23 8 54 17 67 16 25 16 25 -4 7 -19 -17 -21 -16 -47 22 -16 22 -25 45
-21 50 3 7 -3 11 -16 11 -20 0 -21 -1 -5 -22z"/>
<path d="M2490 1505 c0 -8 2 -15 4 -15 2 0 6 7 10 15 3 8 1 15 -4 15 -6 0 -10
-7 -10 -15z"/>
<path d="M2116 1476 c-31 -48 -13 -134 32 -151 14 -5 14 -4 -1 13 -24 26 -32
83 -18 123 14 41 9 47 -13 15z"/>
<path d="M2269 1467 c15 -39 14 -77 -5 -112 l-15 -30 23 23 c29 29 32 102 5
129 -17 17 -18 17 -8 -10z"/>
<path d="M717 1393 c-63 -27 -87 -41 -85 -52 4 -17 30 -19 60 -6 13 5 20 2 24
-11 26 -74 121 -87 138 -20 6 26 -24 118 -40 123 -5 1 -49 -14 -97 -34z m99
-38 c6 -26 -9 -55 -29 -55 -15 0 -47 31 -47 46 0 10 37 31 62 33 4 1 10 -10
14 -24z"/>
<path d="M1081 1410 c-40 -10 -79 -16 -87 -13 -8 3 -14 2 -14 -1 0 -9 60 -128
71 -142 12 -15 169 132 169 158 0 23 -39 23 -139 -2z"/>
<path d="M1666 1413 c-6 -14 -5 -15 5 -6 7 7 10 15 7 18 -3 3 -9 -2 -12 -12z"/>
<path d="M2195 1420 c-23 -6 -25 -8 -8 -9 12 0 28 -4 37 -7 11 -4 16 -1 16 10
0 17 0 17 -45 6z"/>
<path d="M2820 1411 c0 -12 30 -46 71 -83 39 -35 74 -71 78 -81 5 -13 15 -3
42 45 41 71 58 114 40 104 -6 -4 -47 2 -91 13 -103 27 -140 27 -140 2z"/>
<path d="M3216 1411 c-10 -11 -21 -35 -26 -55 -18 -83 49 -114 110 -51 36 37
57 44 66 20 7 -17 -32 -85 -49 -85 -7 0 -3 -6 7 -12 44 -25 95 87 62 137 -25
38 -68 34 -102 -10 -31 -41 -64 -47 -64 -11 0 13 9 35 20 48 29 37 7 54 -24
19z"/>
<path d="M1220 1249 c-36 -17 -80 -37 -99 -43 l-33 -12 51 -61 c57 -69 71 -81
71 -59 0 8 23 44 50 80 98 128 86 155 -40 95z"/>
<path d="M2720 1264 c0 -21 17 -50 63 -109 21 -27 43 -60 48 -73 9 -23 11 -22
55 30 56 65 70 88 52 88 -7 0 -50 18 -96 40 -88 43 -122 50 -122 24z"/>
<path d="M3124 1213 c-28 -24 -44 -55 -44 -88 0 -33 55 -91 95 -101 56 -14
108 26 121 93 5 26 1 37 -28 68 -41 45 -108 58 -144 28z m97 -46 c46 -30 53
-81 14 -99 -32 -14 -85 8 -111 47 -15 23 -15 27 0 50 21 31 52 32 97 2z"/>
<path d="M800 1188 c-47 -11 -87 -22 -89 -24 -11 -10 24 -33 43 -28 32 8 61
-44 44 -81 -8 -19 -9 -28 0 -37 8 -8 18 -2 39 23 15 18 45 53 66 77 39 45 41
50 31 76 -8 20 -27 19 -134 -6z m80 -30 c0 -16 -30 -48 -45 -48 -12 0 -29 29
-22 36 4 4 51 23 60 23 4 1 7 -4 7 -11z"/>
<path d="M1342 1098 c-39 -29 -78 -58 -88 -64 -15 -9 -10 -17 46 -63 l63 -52
43 92 c73 152 55 176 -64 87z"/>
<path d="M2590 1130 c0 -11 18 -57 40 -102 22 -46 40 -89 40 -96 0 -18 23 -4
88 52 52 44 53 46 30 55 -13 5 -46 27 -73 48 -85 67 -125 81 -125 43z"/>
<path d="M960 1048 c-19 -17 -52 -46 -73 -65 l-37 -33 22 -31 c56 -75 133 -87
182 -28 37 44 34 85 -9 143 -20 25 -39 46 -43 46 -4 0 -23 -15 -42 -32z m80
-80 c0 -35 -40 -78 -73 -78 -13 0 -34 11 -46 24 l-22 23 52 46 c50 44 54 45
71 30 10 -9 18 -29 18 -45z"/>
<path d="M2991 1030 c-18 -22 -27 -41 -21 -45 6 -3 15 -3 20 0 6 4 36 -12 66
-36 40 -30 53 -47 49 -60 -11 -34 14 -29 44 10 37 46 38 55 9 48 -29 -8 -129
70 -122 95 10 33 -14 27 -45 -12z"/>
<path d="M1491 970 c-50 -52 -74 -84 -67 -89 13 -10 133 -71 141 -71 3 0 5 13
5 28 0 16 9 63 20 106 34 133 10 139 -99 26z"/>
<path d="M2440 1020 c0 -17 9 -66 21 -110 11 -44 17 -85 13 -91 -11 -18 34 -1
104 39 48 28 58 38 45 43 -10 4 -46 39 -81 78 -70 79 -102 91 -102 41z"/>
<path d="M1714 947 c-12 -17 -32 -50 -44 -72 -13 -22 -32 -50 -42 -61 -11 -12
-16 -24 -11 -27 10 -6 142 -47 152 -47 5 0 8 194 3 228 -4 23 -37 12 -58 -21z"/>
<path d="M2274 968 c-8 -12 -13 -228 -5 -228 12 0 129 33 143 41 15 8 14 14
-15 57 -18 27 -44 70 -59 95 -27 47 -50 59 -64 35z"/>
<path d="M1911 936 c-6 -7 -22 -46 -36 -86 -14 -41 -32 -84 -40 -96 -14 -21
-13 -23 13 -28 15 -3 56 -8 91 -12 60 -6 64 -5 56 12 -4 11 -14 57 -22 103
-19 114 -34 140 -62 107z"/>
<path d="M2091 932 c-6 -10 -15 -56 -20 -101 -6 -45 -15 -91 -22 -102 -10 -20
-9 -21 58 -14 102 9 117 13 104 29 -6 7 -22 46 -36 86 -38 112 -63 142 -84
102z"/>
<path d="M2867 901 l-42 -39 65 -70 c36 -38 71 -70 78 -71 20 -2 26 28 8 48
-21 23 -20 28 4 58 39 50 15 113 -44 113 -17 0 -41 -14 -69 -39z m91 -32 c2
-15 -4 -32 -14 -40 -14 -12 -19 -10 -41 15 -19 22 -21 31 -12 43 7 7 24 13 38
11 20 -2 27 -9 29 -29z"/>
<path d="M1098 852 c-70 -86 -72 -90 -57 -108 10 -13 16 -10 39 17 35 42 50
31 50 -35 0 -35 5 -58 15 -66 13 -11 15 -7 15 26 0 47 7 59 40 69 69 21 69 66
1 123 l-48 41 -55 -67z m96 -8 c18 -18 18 -17 10 -38 -8 -20 -48 -21 -64 -1
-10 13 -10 19 5 35 22 24 29 25 49 4z"/>
<path d="M2717 788 c-16 -12 -15 -19 8 -103 33 -118 32 -116 51 -108 10 4 14
14 11 30 -8 42 51 81 79 53 11 -11 44 -3 44 10 0 8 -142 117 -163 126 -7 2
-20 -1 -30 -8z m73 -67 c20 -16 22 -21 11 -35 -7 -9 -17 -16 -21 -16 -7 0 -30
53 -30 66 0 9 17 2 40 -15z"/>
<path d="M1276 712 c-64 -110 -64 -102 3 -139 45 -25 60 -29 64 -19 3 8 -10
22 -34 35 -39 22 -39 22 -24 52 l16 29 39 -20 c26 -13 41 -16 45 -9 4 6 5 11
4 13 -2 1 -18 12 -36 25 -20 13 -30 27 -26 36 7 20 28 19 64 -2 20 -12 32 -14
39 -7 8 8 -7 22 -49 47 l-60 36 -45 -77z"/>
<path d="M2522 681 c-10 -6 -4 -27 27 -90 22 -45 41 -87 43 -92 2 -6 31 3 65
18 43 20 60 32 54 41 -6 10 -15 9 -44 -3 -20 -8 -38 -15 -41 -15 -2 0 -20 34
-39 75 -36 76 -42 81 -65 66z"/>
<path d="M1456 658 c-24 -34 -20 -48 25 -89 64 -59 28 -100 -39 -44 -36 30
-42 31 -42 5 0 -25 39 -50 88 -57 72 -10 108 55 56 100 -47 39 -55 49 -51 61
7 20 39 18 68 -3 34 -25 35 -25 43 -6 8 22 -50 55 -96 55 -27 0 -41 -6 -52
-22z"/>
<path d="M2353 624 c-54 -27 -66 -99 -27 -160 44 -66 154 -46 178 33 11 34
-11 100 -41 122 -31 25 -66 26 -110 5z m77 -32 c15 -12 24 -33 27 -64 5 -41 3
-48 -19 -62 -31 -20 -54 -12 -73 25 -19 37 -19 84 1 103 20 21 37 20 64 -2z"/>
<path d="M1720 539 c-23 -136 -24 -132 48 -145 52 -9 62 -9 62 3 0 14 -6 17
-53 28 -24 5 -28 10 -25 33 3 25 6 27 46 25 53 -2 59 23 7 33 -40 7 -48 15
-39 39 5 13 15 15 50 9 35 -5 44 -3 44 9 0 9 -14 17 -37 21 -21 4 -50 9 -64
12 -26 5 -27 4 -39 -67z"/>
<path d="M2153 585 c-40 -17 -53 -42 -53 -100 0 -61 40 -105 95 -105 47 0 75
15 75 41 0 19 -1 19 -22 5 -33 -23 -64 -19 -87 10 -29 36 -27 79 5 110 24 25
35 26 77 9 24 -10 23 21 -2 35 -26 13 -49 12 -88 -5z"/>
<path d="M1917 562 c-20 -22 -22 -65 -3 -81 7 -6 31 -17 52 -25 27 -9 39 -19
39 -32 0 -25 -57 -31 -91 -9 -23 15 -24 14 -24 -5 0 -41 99 -54 144 -19 48 38
29 84 -46 108 -43 14 -50 22 -39 39 9 15 36 18 74 8 24 -6 28 -4 25 11 -5 27
-107 31 -131 5z"/>
</g>
</svg>
